<svg width="187" height="24" viewBox="0 0 187 24" fill="none" xmlns="http://www.w3.org/2000/svg">
    <path d="M41.075 0C37.895 0 34.8917 1.24907 32.7496 3.41264L26.5 9.01115L23.1433 12H23.1654L17.225 17.3309C15.8117 18.7584 13.9346 19.539 11.925 19.539C7.79542 19.539 4.43875 16.171 4.43875 12C4.43875 7.829 7.79542 4.46097 11.925 4.46097C13.9346 4.46097 15.8117 5.24164 17.3133 6.75836L19.8088 8.98885L23.1433 6L20.3608 3.52416C18.1083 1.24907 15.105 0 11.925 0C5.34417 0 0 5.39777 0 12C0 18.6022 5.34417 24 11.925 24C15.105 24 18.1083 22.7509 20.2504 20.5874L26.5 15.0112L26.5221 15.0335L29.8567 12H29.8346L35.775 6.66915C37.1883 5.24164 39.0654 4.46097 41.075 4.46097C45.2046 4.46097 48.5612 7.829 48.5612 12C48.5612 16.171 45.2046 19.539 41.075 19.539C39.0875 19.539 37.1883 18.7584 35.6867 17.2416L33.1692 14.9888L29.8346 17.9777L32.6392 20.4758C34.8917 22.7286 37.8729 23.9777 41.075 23.9777C47.6558 23.9777 53 18.6022 53 11.9777C53 5.35316 47.6558 0 41.075 0Z" fill="black"/>
    <path d="M70.04 0.599998H74.456V23H71.096L61.496 9.304V23H57.08V0.599998H60.44L70.04 14.264V0.599998Z" fill="black"/>
    <path d="M85.9155 23.448C83.6968 23.448 81.8302 22.9573 80.3155 21.976C78.8008 20.9733 77.7342 19.6187 77.1155 17.912L80.8915 15.704C81.7662 17.9867 83.4835 19.128 86.0435 19.128C87.2808 19.128 88.1875 18.904 88.7635 18.456C89.3395 18.008 89.6275 17.4427 89.6275 16.76C89.6275 15.9707 89.2755 15.3627 88.5715 14.936C87.8675 14.488 86.6088 14.008 84.7955 13.496C83.7928 13.1973 82.9395 12.8987 82.2355 12.6C81.5528 12.3013 80.8595 11.9067 80.1555 11.416C79.4728 10.904 78.9502 10.264 78.5875 9.496C78.2248 8.728 78.0435 7.832 78.0435 6.808C78.0435 4.78133 78.7582 3.17067 80.1875 1.976C81.6382 0.759999 83.3768 0.151999 85.4035 0.151999C87.2168 0.151999 88.8062 0.599998 90.1715 1.496C91.5582 2.37067 92.6355 3.59733 93.4035 5.176L89.6915 7.32C88.7955 5.4 87.3662 4.44 85.4035 4.44C84.4862 4.44 83.7608 4.65333 83.2275 5.08C82.7155 5.48533 82.4595 6.01867 82.4595 6.68C82.4595 7.384 82.7475 7.96 83.3235 8.408C83.9208 8.83467 85.0515 9.304 86.7155 9.816C87.3982 10.0293 87.9102 10.2 88.2515 10.328C88.6142 10.4347 89.0942 10.616 89.6915 10.872C90.3102 11.1067 90.7795 11.3307 91.0995 11.544C91.4408 11.7573 91.8248 12.0453 92.2515 12.408C92.6782 12.7707 92.9982 13.144 93.2115 13.528C93.4462 13.912 93.6382 14.3813 93.7875 14.936C93.9582 15.4693 94.0435 16.056 94.0435 16.696C94.0435 18.7653 93.2862 20.408 91.7715 21.624C90.2782 22.84 88.3262 23.448 85.9155 23.448Z" fill="black"/>
    <path d="M105.276 23.448C102.78 23.448 100.732 22.744 99.1318 21.336C97.5318 19.928 96.7318 18.04 96.7318 15.672V0.599998H101.116V15.32C101.116 16.4933 101.446 17.4213 102.108 18.104C102.79 18.7867 103.846 19.128 105.276 19.128C106.705 19.128 107.75 18.7867 108.412 18.104C109.094 17.4213 109.436 16.4933 109.436 15.32V0.599998H113.852V15.672C113.852 18.04 113.052 19.928 111.452 21.336C109.852 22.744 107.793 23.448 105.276 23.448Z" fill="black"/>
    <path d="M139.75 0.599998V23H135.366V8.472L129.062 18.872H128.55L122.246 8.504V23H117.83V0.599998H122.374L128.806 11.192L135.206 0.599998H139.75Z" fill="black"/>
    <path d="M143.924 0.599998H148.34V23H143.924V0.599998Z" fill="black"/>
    <path d="M165.862 4.824H156.902V10.136H165.606V14.36H156.902V23H152.486V0.599998H165.862V4.824Z" fill="black"/>
    <path d="M186.808 0.599998L179.128 14.264V23H174.744V14.264L167.096 0.599998H172.088L176.952 9.944L181.816 0.599998H186.808Z" fill="black"/>
</svg>