<svg width="128" height="128" viewBox="0 0 128 128" fill="none" xmlns="http://www.w3.org/2000/svg">
    <rect width="128" height="128" rx="15" fill="white"/>
    <path d="M86.112 48.64C81.4272 48.64 77.0027 50.4387 73.847 53.5542L64.64 61.6161L59.695 65.92H59.7275L50.976 73.5964C48.8939 75.652 46.1286 76.7762 43.168 76.7762C37.0843 76.7762 32.1392 71.9262 32.1392 65.92C32.1392 59.9138 37.0843 55.0638 43.168 55.0638C46.1286 55.0638 48.8939 56.188 51.1062 58.372L54.7824 61.5839L59.695 57.28L55.5958 53.7148C52.2774 50.4387 47.8528 48.64 43.168 48.64C33.4731 48.64 25.6 56.4128 25.6 65.92C25.6 75.4272 33.4731 83.2 43.168 83.2C47.8528 83.2 52.2774 81.4013 55.4331 78.2858L64.64 70.2561L64.6726 70.2882L69.5851 65.92H69.5526L78.304 58.2436C80.3862 56.188 83.1515 55.0638 86.112 55.0638C92.1958 55.0638 97.1408 59.9138 97.1408 65.92C97.1408 71.9262 92.1958 76.7762 86.112 76.7762C83.184 76.7762 80.3862 75.652 78.1739 73.468L74.4651 70.2239L69.5526 74.5279L73.6843 78.1252C77.0027 81.3692 81.3947 83.1679 86.112 83.1679C95.807 83.1679 103.68 75.4272 103.68 65.8879C103.68 56.3485 95.807 48.64 86.112 48.64V48.64Z" fill="black"/>
</svg>